{"glyphs":{"0":{"ha":1306,"x_min":0,"x_max":0,"o":"m 653 -29 b 1217 486 1010 -29 1217 171 b 653 1001 1217 801 1010 1001 b 89 486 297 1001 89 801 b 653 -29 89 171 297 -29 z m 653 79 b 208 486 379 79 208 218 b 653 893 208 754 379 893 b 1097 486 925 893 1097 754 b 653 79 1097 218 925 79 z "},"1":{"ha":625,"x_min":0,"x_max":0,"o":"m 347 0 l 464 0 l 464 972 l 375 972 b 44 804 283 892 165 822 l 44 699 b 347 826 158 717 261 756 z "},"2":{"ha":1129,"x_min":0,"x_max":0,"o":"m 96 753 l 185 694 b 571 897 278 829 406 897 b 906 706 739 897 906 836 b 568 472 906 597 763 543 b 68 57 283 368 100 225 l 68 0 l 1047 0 l 1047 103 l 217 103 b 631 382 250 218 413 306 b 1025 707 863 463 1025 540 b 575 1000 1025 897 799 1000 b 96 753 354 1000 175 893 z "},"3":{"ha":1158,"x_min":0,"x_max":0,"o":"m 164 267 l 61 211 b 594 -28 164 67 343 -28 b 1071 271 860 -28 1071 82 b 792 511 1071 433 910 497 b 1033 733 908 522 1033 604 b 575 1000 1033 903 822 1000 b 89 778 344 1000 188 919 l 190 724 b 592 897 265 832 388 897 b 914 728 746 897 914 842 b 558 558 914 613 746 558 l 432 558 l 432 456 l 558 456 b 947 276 786 456 947 414 b 599 75 947 140 785 75 b 164 267 403 75 239 146 z "},"4":{"ha":1192,"x_min":0,"x_max":0,"o":"m 1140 340 l 928 340 l 928 972 l 825 972 l 40 319 l 40 240 l 811 240 l 811 0 l 928 0 l 928 240 l 1140 240 z m 217 340 l 811 829 l 811 340 z "},"5":{"ha":1156,"x_min":0,"x_max":0,"o":"m 161 274 l 71 211 b 606 -29 185 69 375 -29 b 1089 293 904 -29 1089 113 b 615 613 1089 513 872 613 b 238 533 478 613 368 599 l 294 868 l 988 868 l 988 972 l 197 972 l 114 478 l 211 435 b 578 515 344 493 453 515 b 969 296 814 515 969 443 b 606 76 969 147 814 76 b 161 274 415 76 254 149 z "},"6":{"ha":1224,"x_min":0,"x_max":0,"o":"m 711 617 b 213 417 489 617 317 538 b 208 486 210 439 208 463 b 656 901 208 772 392 901 b 1015 760 796 901 924 861 l 1107 828 b 650 1001 1007 939 856 1001 b 89 486 297 1001 89 799 b 650 -29 89 174 297 -29 b 1146 301 954 -29 1146 107 b 711 617 1146 518 932 617 z m 650 71 b 233 321 444 71 290 150 b 686 518 336 446 518 518 b 1026 301 872 518 1026 456 b 650 71 1026 153 876 71 z "},"7":{"ha":1039,"x_min":0,"x_max":0,"o":"m 297 0 l 438 0 l 1010 886 l 1010 972 l 35 972 l 35 867 l 863 867 z "},"8":{"ha":1226,"x_min":0,"x_max":0,"o":"m 853 513 b 1101 731 975 524 1101 594 b 614 1001 1101 903 888 1001 b 126 731 339 1001 126 903 b 375 513 126 594 253 524 b 89 267 254 501 89 428 b 614 -29 89 82 301 -29 b 1139 267 925 -29 1139 82 b 853 513 1139 428 974 501 z m 244 728 b 614 901 244 851 417 901 b 983 728 811 901 983 851 b 614 554 983 604 811 554 b 244 728 417 554 244 604 z m 613 71 b 210 265 375 71 210 140 b 613 460 210 390 375 460 b 1017 265 851 460 1017 390 b 613 71 1017 132 851 71 z "},"9":{"ha":1224,"x_min":0,"x_max":0,"o":"m 574 1001 b 78 671 269 1001 78 865 b 513 356 78 454 292 356 b 1011 556 735 356 907 435 b 1015 486 1014 533 1015 510 b 568 71 1015 200 832 71 b 208 213 428 71 300 111 l 117 144 b 574 -29 217 33 368 -29 b 1135 486 926 -29 1135 174 b 574 1001 1135 799 926 1001 z m 538 454 b 197 671 351 454 197 517 b 574 901 197 819 347 901 b 990 651 779 901 933 822 b 538 454 888 526 706 454 z "},"A":{"ha":1244,"x_min":0,"x_max":0,"o":"m 1090 0 l 1222 0 l 688 972 l 557 972 l 22 0 l 151 0 l 293 261 l 949 261 z m 350 367 l 621 865 l 892 367 z "},"B":{"ha":1286,"x_min":0,"x_max":0,"o":"m 938 500 b 1146 725 1081 511 1146 614 b 808 972 1146 889 1006 972 l 161 972 l 161 0 l 836 0 b 1201 267 1061 0 1201 89 b 938 500 1201 429 1089 490 z m 276 867 l 792 867 b 1029 708 931 867 1029 831 b 792 550 1029 586 931 550 l 276 550 z m 815 106 l 276 106 l 276 444 l 815 444 b 1081 275 982 444 1081 396 b 815 106 1081 156 982 106 z "},"C":{"ha":1232,"x_min":0,"x_max":0,"o":"m 676 79 b 208 486 394 79 208 218 b 676 893 208 754 394 893 b 1061 707 846 893 985 836 l 1172 763 b 678 1001 1081 907 911 1001 b 89 486 311 1001 89 801 b 674 -29 89 171 311 -29 b 1172 210 911 -29 1081 64 l 1061 265 b 676 79 986 135 846 79 z "},"D":{"ha":1306,"x_min":0,"x_max":0,"o":"m 633 972 l 161 972 l 161 0 l 633 0 b 1217 486 989 0 1217 188 b 633 972 1217 785 989 972 z m 625 108 l 278 108 l 278 864 l 625 864 b 1097 486 901 864 1097 735 b 625 108 1097 238 901 108 z "},"E":{"ha":1181,"x_min":0,"x_max":0,"o":"m 278 108 l 278 440 l 964 440 l 964 549 l 278 549 l 278 864 l 1088 864 l 1088 972 l 161 972 l 161 0 l 1101 0 l 1101 108 z "},"F":{"ha":1136,"x_min":0,"x_max":0,"o":"m 1086 864 l 1086 972 l 161 972 l 161 0 l 278 0 l 278 415 l 964 415 l 964 524 l 278 524 l 278 864 z "},"G":{"ha":1317,"x_min":0,"x_max":0,"o":"m 1232 506 l 674 506 l 674 397 l 1115 397 l 1115 271 b 692 79 1043 136 885 79 b 208 486 394 79 208 217 b 683 893 208 756 393 893 b 1076 728 860 893 989 838 l 1178 799 b 683 1001 1081 913 921 1001 b 89 486 311 1001 89 803 b 688 -29 89 169 311 -29 b 1232 236 957 -29 1151 85 z "},"H":{"ha":1356,"x_min":0,"x_max":0,"o":"m 1078 972 l 1078 549 l 278 549 l 278 972 l 161 972 l 161 0 l 278 0 l 278 438 l 1078 438 l 1078 0 l 1194 0 l 1194 972 z "},"I":{"ha":439,"x_min":0,"x_max":0,"o":"m 278 0 l 278 972 l 161 972 l 161 0 z "},"J":{"ha":960,"x_min":0,"x_max":0,"o":"m 122 200 l 24 135 b 390 -29 92 35 207 -29 b 818 403 692 -29 818 165 l 818 972 l 701 972 l 701 410 b 390 79 701 213 611 79 b 122 200 253 79 176 119 z "},"K":{"ha":1224,"x_min":0,"x_max":0,"o":"m 1211 0 l 696 590 l 1181 972 l 1014 972 l 278 403 l 278 972 l 161 972 l 161 0 l 278 0 l 278 269 l 601 522 l 1063 0 z "},"L":{"ha":1054,"x_min":0,"x_max":0,"o":"m 278 108 l 278 972 l 161 972 l 161 0 l 1022 0 l 1022 108 z "},"M":{"ha":1550,"x_min":0,"x_max":0,"o":"m 1264 972 l 776 378 l 289 972 l 161 972 l 161 0 l 275 0 l 275 808 l 769 210 l 778 210 l 1272 808 l 1272 0 l 1389 0 l 1389 972 z "},"N":{"ha":1356,"x_min":0,"x_max":0,"o":"m 1081 972 l 1081 171 l 288 972 l 161 972 l 161 0 l 275 0 l 275 824 l 1092 0 l 1194 0 l 1194 972 z "},"O":{"ha":1361,"x_min":0,"x_max":0,"o":"m 681 -29 b 1272 486 1050 -29 1272 169 b 681 1001 1272 803 1050 1001 b 89 486 311 1001 89 803 b 681 -29 89 169 311 -29 z m 681 79 b 208 486 394 79 208 225 b 681 893 208 747 394 893 b 1153 486 967 893 1153 747 b 681 79 1153 225 967 79 z "},"P":{"ha":1243,"x_min":0,"x_max":0,"o":"m 811 972 l 161 972 l 161 0 l 278 0 l 278 356 l 811 356 b 1183 664 1035 356 1183 469 b 811 972 1183 858 1035 972 z m 803 464 l 278 464 l 278 864 l 803 864 b 1064 664 961 864 1064 800 b 803 464 1064 528 961 464 z "},"Q":{"ha":1361,"x_min":0,"x_max":0,"o":"m 1272 486 b 681 1001 1272 803 1050 1001 b 89 486 311 1001 89 803 b 681 -29 89 169 311 -29 b 965 19 789 -29 885 -12 l 1131 -158 l 1206 -89 l 1060 68 b 1272 486 1196 157 1272 301 z m 681 79 b 208 486 394 79 208 225 b 681 893 208 747 394 893 b 1153 486 967 893 1153 747 b 981 154 1153 335 1090 221 l 801 347 l 726 278 l 883 108 b 681 79 824 89 756 79 z "},"R":{"ha":1285,"x_min":0,"x_max":0,"o":"m 1217 0 l 885 376 b 1186 672 1064 397 1186 503 b 814 972 1186 864 1031 972 l 161 972 l 161 0 l 279 0 l 279 372 l 742 372 l 1064 0 z m 278 481 l 278 864 l 806 864 b 1067 672 963 864 1067 804 b 806 481 1067 540 963 481 z "},"S":{"ha":1200,"x_min":0,"x_max":0,"o":"m 632 554 b 219 718 403 572 219 597 b 596 893 219 846 422 894 b 996 750 758 892 901 843 l 1088 828 b 590 1001 975 928 801 1001 b 100 714 331 1001 100 897 b 608 443 100 522 349 465 b 1014 274 871 421 1014 392 b 642 79 1014 153 876 79 b 149 258 447 79 290 133 l 67 171 b 635 -29 218 38 422 -29 b 1133 282 951 -29 1133 103 b 632 554 1133 474 928 531 z "},"T":{"ha":1096,"x_min":0,"x_max":0,"o":"m 1065 972 l 31 972 l 31 867 l 489 867 l 489 0 l 606 0 l 606 867 l 1065 867 z "},"U":{"ha":1310,"x_min":0,"x_max":0,"o":"m 1051 972 l 1051 465 b 656 79 1051 226 908 79 b 258 465 401 79 258 226 l 258 972 l 142 972 l 142 458 b 656 -29 142 175 321 -29 b 1168 458 990 -29 1168 175 l 1168 972 z "},"V":{"ha":1203,"x_min":0,"x_max":0,"o":"m 22 972 l 538 0 l 665 0 l 1181 972 l 1051 972 l 603 126 l 154 972 z "},"W":{"ha":1671,"x_min":0,"x_max":0,"o":"m 1504 972 l 1210 142 l 896 972 l 778 972 l 463 142 l 169 972 l 42 972 l 399 0 l 522 0 l 836 832 l 1149 0 l 1272 0 l 1629 972 z "},"X":{"ha":1118,"x_min":0,"x_max":0,"o":"m 1090 972 l 942 972 l 561 568 l 181 972 l 28 972 l 482 489 l 25 0 l 174 0 l 557 408 l 940 0 l 1093 0 l 636 490 z "},"Y":{"ha":1143,"x_min":0,"x_max":0,"o":"m 25 972 l 514 340 l 514 0 l 631 0 l 631 340 l 1118 972 l 979 972 l 574 446 l 165 972 z "},"Z":{"ha":1178,"x_min":0,"x_max":0,"o":"m 1081 972 l 100 972 l 100 867 l 903 867 l 75 86 l 75 0 l 1103 0 l 1103 106 l 253 106 l 1081 886 z "},"a":{"ha":1036,"x_min":0,"x_max":0,"o":"m 499 785 b 129 682 361 785 218 742 l 182 599 b 479 686 267 653 358 686 b 792 419 688 686 792 603 l 792 357 b 449 508 732 440 613 508 b 63 240 283 508 63 440 b 449 -28 63 39 283 -28 b 792 124 613 -28 732 42 l 792 121 b 824 0 792 78 801 38 l 944 0 b 908 147 918 44 908 90 l 908 419 b 499 785 908 660 753 785 z m 794 226 b 458 67 729 110 586 67 b 175 240 347 67 175 99 b 458 414 175 382 347 414 b 794 254 586 414 729 372 z "},"b":{"ha":1108,"x_min":0,"x_max":0,"o":"m 617 785 b 251 611 450 785 321 717 l 251 1028 l 138 1028 l 138 0 l 251 0 l 251 146 b 617 -28 321 40 450 -28 b 1028 378 869 -28 1028 133 b 617 785 1028 622 869 785 z m 588 74 b 251 258 447 74 329 124 l 251 499 b 588 683 329 633 447 683 b 913 378 796 683 913 574 b 588 74 913 183 796 74 z "},"c":{"ha":994,"x_min":0,"x_max":0,"o":"m 938 163 l 825 213 b 540 72 771 111 650 72 b 196 378 340 72 196 174 b 540 685 196 583 340 685 b 822 549 649 685 767 647 l 933 604 b 539 786 863 706 746 786 b 81 378 251 786 81 626 b 539 -29 81 131 251 -29 b 938 163 750 -29 868 51 z "},"d":{"ha":1108,"x_min":0,"x_max":0,"o":"m 492 785 b 81 378 239 785 81 622 b 492 -28 81 133 239 -28 b 857 146 658 -28 788 40 l 857 0 l 971 0 l 971 1028 l 857 1028 l 857 611 b 492 785 788 717 658 785 z m 521 74 b 196 378 313 74 196 183 b 521 683 196 574 313 683 b 857 499 661 683 779 633 l 857 258 b 521 74 779 124 661 74 z "},"e":{"ha":1049,"x_min":0,"x_max":0,"o":"m 196 354 l 974 354 b 976 379 975 360 976 367 b 535 786 976 640 804 786 b 81 378 249 786 81 628 b 542 -29 81 129 249 -29 b 950 108 721 -29 847 15 l 875 188 b 547 68 788 106 697 68 b 196 354 346 68 207 163 z m 536 689 b 861 449 699 689 828 617 l 201 449 b 536 689 231 608 361 689 z "},"f":{"ha":665,"x_min":0,"x_max":0,"o":"m 294 838 b 443 968 294 933 360 968 b 597 914 496 968 543 954 l 651 986 b 432 1056 592 1032 508 1056 b 181 819 297 1056 181 983 l 181 757 l 28 757 l 28 660 l 181 660 l 181 0 l 294 0 l 294 660 l 642 660 l 642 757 l 294 757 z "},"g":{"ha":1108,"x_min":0,"x_max":0,"o":"m 971 757 l 857 757 l 857 611 b 492 785 788 717 658 785 b 81 378 239 785 81 622 b 492 -28 81 133 239 -28 b 857 146 644 -28 788 40 l 857 69 b 511 -204 857 -114 733 -204 b 213 -117 386 -204 285 -164 l 158 -204 b 522 -306 240 -264 388 -306 b 971 83 767 -306 971 -189 z m 521 74 b 196 378 313 74 196 183 b 521 683 196 574 313 683 b 857 499 661 683 779 633 l 857 258 b 521 74 779 124 661 74 z "},"h":{"ha":1094,"x_min":0,"x_max":0,"o":"m 613 785 b 251 600 450 785 322 714 l 251 1028 l 138 1028 l 138 0 l 251 0 l 251 475 b 590 683 321 615 443 683 b 846 419 761 683 846 590 l 846 0 l 960 0 l 960 428 b 613 785 960 635 847 785 z "},"i":{"ha":397,"x_min":0,"x_max":0,"o":"m 199 874 b 279 947 244 874 279 907 b 199 1021 279 989 244 1021 b 118 947 153 1021 118 989 b 199 874 118 907 153 874 z m 256 757 l 142 757 l 142 0 l 256 0 z "},"j":{"ha":397,"x_min":0,"x_max":0,"o":"m 199 874 b 279 946 244 874 279 906 b 199 1018 279 988 244 1018 b 118 946 153 1018 118 988 b 199 874 118 906 153 874 z m 142 757 l 142 -64 b 17 -201 142 -147 97 -201 b -58 -185 -10 -201 -37 -196 l -93 -278 b 40 -306 -61 -293 -11 -306 b 256 -85 169 -306 256 -224 l 256 757 z "},"k":{"ha":964,"x_min":0,"x_max":0,"o":"m 814 0 l 953 0 l 568 458 l 929 757 l 779 757 l 251 331 l 251 1028 l 138 1028 l 138 0 l 251 0 l 251 215 l 479 393 z "},"l":{"ha":397,"x_min":0,"x_max":0,"o":"m 256 0 l 256 1028 l 142 1028 l 142 0 z "},"m":{"ha":1713,"x_min":0,"x_max":0,"o":"m 1251 785 b 896 567 1090 785 954 700 b 588 785 860 696 763 785 b 251 600 436 785 313 711 l 251 757 l 138 757 l 138 0 l 251 0 l 251 478 b 558 683 313 610 415 683 b 801 422 728 683 801 582 l 801 0 l 915 0 l 914 93 l 914 431 b 913 474 914 444 914 460 b 1222 683 974 607 1078 683 b 1465 422 1392 683 1465 582 l 1465 0 l 1578 0 l 1578 431 b 1251 785 1578 628 1483 785 z "},"n":{"ha":1094,"x_min":0,"x_max":0,"o":"m 251 0 l 251 475 b 590 683 321 615 443 683 b 846 419 761 683 846 590 l 846 0 l 960 0 l 960 428 b 613 785 960 635 847 785 b 251 600 450 785 322 714 l 251 757 l 138 757 l 138 0 z "},"o":{"ha":1081,"x_min":0,"x_max":0,"o":"m 540 -29 b 1000 378 829 -29 1000 128 b 540 786 1000 628 829 786 b 81 378 251 786 81 628 b 540 -29 81 128 251 -29 z m 540 72 b 196 378 343 72 196 174 b 540 685 196 583 343 685 b 885 378 738 685 885 583 b 540 72 885 174 738 72 z "},"p":{"ha":1108,"x_min":0,"x_max":0,"o":"m 617 -28 b 1028 379 869 -28 1028 135 b 617 785 1028 624 869 785 b 251 611 450 785 321 717 l 251 757 l 138 757 l 138 -278 l 251 -278 l 251 146 b 617 -28 321 40 450 -28 z m 588 683 b 913 379 796 683 913 574 b 588 74 913 183 796 74 b 251 258 447 74 329 124 l 251 499 b 588 683 329 633 447 683 z "},"q":{"ha":1108,"x_min":0,"x_max":0,"o":"m 492 -28 b 857 146 658 -28 788 40 l 857 -278 l 971 -278 l 971 757 l 857 757 l 857 611 b 492 785 788 717 658 785 b 81 379 239 785 81 624 b 492 -28 81 135 239 -28 z m 521 683 b 857 499 661 683 779 633 l 857 258 b 521 74 779 124 661 74 b 196 379 313 74 196 183 b 521 683 196 574 313 683 z "},"r":{"ha":653,"x_min":0,"x_max":0,"o":"m 251 0 l 251 442 b 628 669 308 593 456 669 l 628 772 b 251 571 464 772 313 699 l 251 757 l 138 757 l 138 0 z "},"s":{"ha":960,"x_min":0,"x_max":0,"o":"m 504 439 b 203 564 339 451 203 469 b 475 692 203 665 360 693 b 788 581 615 690 717 642 l 860 657 b 481 786 776 725 633 786 b 90 557 257 786 90 706 b 481 342 90 401 281 358 b 786 206 674 325 786 300 b 506 65 786 114 663 65 b 133 201 347 65 232 118 l 61 133 b 503 -29 178 31 329 -29 b 899 217 761 -29 899 81 b 504 439 899 364 732 421 z "},"t":{"ha":671,"x_min":0,"x_max":0,"o":"m 608 125 b 449 74 558 96 508 74 b 294 208 365 74 294 115 l 294 657 l 643 657 l 643 757 l 294 757 l 294 933 l 181 933 l 181 757 l 28 757 l 28 657 l 181 657 l 181 192 b 429 -28 181 44 293 -28 b 649 43 514 -28 589 1 z "},"u":{"ha":1094,"x_min":0,"x_max":0,"o":"m 843 757 l 843 282 b 504 74 774 142 651 74 b 249 338 333 74 249 167 l 249 757 l 135 757 l 135 329 b 482 -28 135 122 247 -28 b 843 157 644 -28 772 43 l 843 0 l 957 0 l 957 757 z "},"v":{"ha":981,"x_min":0,"x_max":0,"o":"m 950 757 l 824 757 l 492 114 l 160 757 l 31 757 l 428 0 l 553 0 z "},"w":{"ha":1372,"x_min":0,"x_max":0,"o":"m 1213 757 l 982 129 l 743 757 l 632 757 l 393 129 l 163 757 l 44 757 l 328 0 l 444 0 l 688 633 l 928 0 l 1044 0 l 1328 757 z "},"x":{"ha":911,"x_min":0,"x_max":0,"o":"m 875 757 l 735 757 l 457 449 l 179 757 l 36 757 l 383 381 l 33 0 l 174 0 l 454 311 l 735 0 l 878 0 l 529 382 z "},"y":{"ha":982,"x_min":0,"x_max":0,"o":"m 826 757 l 494 168 l 158 757 l 31 757 l 433 53 l 238 -278 l 361 -278 l 951 757 z "},"z":{"ha":926,"x_min":0,"x_max":0,"o":"m 846 757 l 81 757 l 81 657 l 681 657 l 61 82 l 61 -1 l 863 -1 l 863 99 l 226 99 l 846 674 z "},",":{"ha":365,"x_min":0,"x_max":0,"o":"m 185 140 b 103 64 138 140 103 107 b 181 -14 103 18 138 -14 b 203 -8 189 -14 199 -12 b 119 -162 196 -58 175 -99 l 157 -194 b 271 51 229 -126 271 -22 b 185 140 271 106 235 140 z "},".":{"ha":356,"x_min":0,"x_max":0,"o":"m 178 -14 b 261 63 226 -14 261 18 b 178 140 261 107 226 140 b 94 63 129 140 94 107 b 178 -14 94 18 129 -14 z "},"-":{"ha":831,"x_min":0,"x_max":0,"o":"m 711 365 l 711 465 l 118 465 l 118 365 z "}," ":{"ha":444,"x_min":0,"x_max":0,"o":""}}}
